#tb 0: 1/8
#media_type 0: video
#codec_id 0: rawvideo
#dimensions 0: 320x240
#sar 0: 1/1
0,          0,          0,        1,   115200, 0xeba70ff3
0,          1,          1,        1,   115200, 0xeba70ff3
0,          4,          4,        1,   115200, 0xa764e4d5
0,          5,          5,        1,   115200, 0xa764e4d5
0,          8,          8,        1,   115200, 0x1dadb3a3
0,          9,          9,        1,   115200, 0x1dadb3a3
0,         12,         12,        1,   115200, 0x2edb3aa4
0,         13,         13,        1,   115200, 0x2edb3aa4
0,         16,         16,        1,   115200, 0xb8cdb7ac
0,         17,         17,        1,   115200, 0xb8cdb7ac
0,         20,         20,        1,   115200, 0x72f1289d
0,         21,         21,        1,   115200, 0x72f1289d
0,         24,         24,        1,   115200, 0xb789c3ba
0,         25,         25,        1,   115200, 0xb789c3ba
0,         28,         28,        1,   115200, 0xd779fa6d
0,         29,         29,        1,   115200, 0xd779fa6d
0,         32,         32,        1,   115200, 0xd1084e35
0,         33,         33,        1,   115200, 0xd1084e35
0,         36,         36,        1,   115200, 0xbbc3728b
0,         37,         37,        1,   115200, 0xbbc3728b
